<?xml version="1.0" standalone="no"?>
<!DOCTYPE svg PUBLIC "-//W3C//DTD SVG 20010904//EN"
 "http://www.w3.org/TR/2001/REC-SVG-20010904/DTD/svg10.dtd">
<svg version="1.0" xmlns="http://www.w3.org/2000/svg"
 width="513.000000pt" height="513.000000pt" viewBox="0 0 513.000000 513.000000"
 preserveAspectRatio="xMidYMid meet">
<metadata>
Created by potrace 1.14, written by Peter Selinger 2001-2017
</metadata>
<g transform="translate(0.000000,513.000000) scale(0.100000,-0.100000)"
fill="#000000" stroke="none">
<path d="M2315 5069 c-1019 -105 -1872 -797 -2184 -1772 -85 -266 -115 -471
-115 -772 0 -223 8 -316 45 -505 183 -925 885 -1688 1792 -1949 241 -70 255
-71 712 -71 407 0 417 1 537 26 259 54 584 184 808 324 225 140 496 380 650
575 279 353 465 779 537 1227 28 176 25 597 -5 772 -50 286 -120 505 -241 746
-374 746 -1089 1261 -1926 1386 -121 18 -486 26 -610 13z m370 -1703 c67 -11
77 -13 145 -36 209 -70 376 -211 487 -410 31 -55 71 -162 79 -210 18 -113 22
-230 10 -309 -12 -72 -56 -215 -73 -233 -9 -10 -13 -18 -10 -18 10 0 -60 -107
-107 -165 -45 -56 -61 -71 -126 -124 -25 -20 -46 -39 -48 -43 -2 -5 -8 -8 -13
-8 -5 0 -26 -11 -47 -23 -20 -13 -55 -30 -77 -37 -22 -7 -45 -16 -51 -21 -14
-11 -129 -40 -179 -44 -152 -14 -323 7 -425 52 -19 9 -38 15 -42 15 -5 -1 -8
2 -8 8 0 5 -6 10 -14 10 -8 0 -37 16 -65 35 -28 19 -53 35 -56 35 -8 0 -45 33
-84 74 -20 21 -43 46 -51 55 -48 50 -95 119 -121 178 -16 38 -34 77 -40 88 -5
11 -11 29 -13 40 -3 11 -10 43 -16 70 -6 28 -14 73 -16 100 -3 28 -6 58 -8 68
-1 11 1 47 6 80 5 34 11 77 13 95 7 52 50 178 76 222 5 8 15 26 21 40 20 42
90 130 154 194 50 50 84 74 161 117 169 94 368 133 538 105z"/>
</g>
</svg>
